<mxfile host="app.diagrams.net" modified="2024-06-06T23:05:41.507Z" agent="Mozilla/5.0 (Macintosh; Intel Mac OS X 10_15_7) AppleWebKit/605.1.15 (KHTML, like Gecko) Version/17.4.1 Safari/605.1.15" etag="0zJsudqtwzfYU_s242Yu" version="24.5.1" type="github">
  <diagram name="Overview" id="a2_R-0ULGQ0beDOq8R0E">
    <mxGraphModel dx="761" dy="1018" grid="0" gridSize="10" guides="1" tooltips="1" connect="1" arrows="1" fold="1" page="0" pageScale="1" pageWidth="827" pageHeight="1169" math="0" shadow="0">
      <root>
        <mxCell id="0" />
        <mxCell id="1" parent="0" />
        <mxCell id="aQVxBtrUJKUfTR30Hi9a-2" value="Open Weather Data" style="shape=document;whiteSpace=wrap;html=1;boundedLbl=1;" vertex="1" parent="1">
          <mxGeometry x="140" y="122" width="120" height="80" as="geometry" />
        </mxCell>
        <mxCell id="aQVxBtrUJKUfTR30Hi9a-3" value="Snowflake" style="rounded=1;whiteSpace=wrap;html=1;" vertex="1" parent="1">
          <mxGeometry x="315" y="-25" width="379" height="381" as="geometry" />
        </mxCell>
        <mxCell id="aQVxBtrUJKUfTR30Hi9a-7" value="Landing / Raw" style="whiteSpace=wrap;html=1;" vertex="1" parent="1">
          <mxGeometry x="351" y="126" width="120" height="60" as="geometry" />
        </mxCell>
        <mxCell id="aQVxBtrUJKUfTR30Hi9a-8" value="Staged Weather Data" style="whiteSpace=wrap;html=1;" vertex="1" parent="1">
          <mxGeometry x="549" y="122" width="120" height="60" as="geometry" />
        </mxCell>
        <mxCell id="aQVxBtrUJKUfTR30Hi9a-9" value="Staged Sales Data" style="whiteSpace=wrap;html=1;" vertex="1" parent="1">
          <mxGeometry x="551" y="221" width="120" height="60" as="geometry" />
        </mxCell>
        <mxCell id="aQVxBtrUJKUfTR30Hi9a-10" value="Sales Data" style="whiteSpace=wrap;html=1;" vertex="1" parent="1">
          <mxGeometry x="140" y="424" width="120" height="60" as="geometry" />
        </mxCell>
        <mxCell id="aQVxBtrUJKUfTR30Hi9a-11" value="BI Report" style="whiteSpace=wrap;html=1;" vertex="1" parent="1">
          <mxGeometry x="742" y="124" width="120" height="60" as="geometry" />
        </mxCell>
      </root>
    </mxGraphModel>
  </diagram>
</mxfile>
